<svg xmlns="http://www.w3.org/2000/svg" width="805" height="600"><rect width="805" height="600" x="0" y="0" fill="#FFFFFF" id="backgorund"/><g transform="translate(10,10)" id="visualization"><g><rect x="390" y="5" height="3.8229032263761837" width="5" fill="black"><title>commerce colonial: 109478</title></rect><rect x="780" y="2.5" height="3.8229032263761837" width="5" fill="black"><title>Colonies: 109478</title></rect><rect x="0" y="0" height="3.8595336514443663" width="5" fill="black"><title>Les Sables d'Olonne: 110527.00005</title></rect><rect x="0" y="8.859533651444366" height="9.573957069295545" width="5" fill="black"><title>Rochefort: 274173.216</title></rect><rect x="390" y="13.822903226376184" height="18.41138897199002" width="5" fill="black"><title>sel: 527254.2679000001</title></rect><rect x="0" y="23.43349072073991" height="21.720809898318635" width="5" fill="black"><title>Saint-Martin-de-Ré: 622027.47107</title></rect><rect x="0" y="50.154300619058546" height="31.022653724083" width="5" fill="black"><title>Aligre: 888408.0719</title></rect><rect x="0" y="86.17695434314155" height="31.532574897134168" width="5" fill="black"><title>Marennes: 903010.8873200001</title></rect><rect x="780" y="11.322903226376184" height="46.145894187257" width="5" fill="black"><title>Europe du Nord: 1321498.32331</title></rect><rect x="390" y="37.234292198366205" height="55.55812080320766" width="5" fill="black"><title>traite: 1591040</title></rect><rect x="780" y="62.46879741363318" height="55.55812080320766" width="5" fill="black"><title>Afrique: 1591040</title></rect><rect x="780" y="123.02691821684084" height="84.37472946384634" width="5" fill="black"><title>Ports francs et petites îles: 2416272.6821099995</title></rect><rect x="780" y="212.40164768068718" height="170.4527106137835" width="5" fill="black"><title>Angleterre: 4881322.06011</title></rect><rect x="780" y="387.85435829447067" height="189.64564170552933" width="5" fill="black"><title>Reste du monde: 5430957.6605</title></rect><rect x="0" y="122.70952924027571" height="205.16326118717225" width="5" fill="black"><title>Charente: 5875341.900699999</title></rect><rect x="390" y="97.79241300157386" height="229.76380291241472" width="5" fill="black"><title>autres produits: 6579837.39732</title></rect><rect x="390" y="332.5562159139886" height="242.44378408601142" width="5" fill="black"><title>eau-de-vie et vins divers: 6942959.060810001</title></rect><rect x="0" y="332.87279042744797" height="247.12720957255203" width="5" fill="black"><title>La Rochelle: 7077080.17899</title></rect></g><g fill="none" stroke-opacity="1"><g style="mix-blend-mode: multiply;"><path d="M5,1.9948827283819413C197.5,1.9948827283819413,197.5,99.65706392463629,390,99.65706392463629" stroke="#d62728" stroke-width="3.72930184612485"/><title>Les Sables d'Olonne → autres produits: 106797.50005</title></g><g style="mix-blend-mode: multiply;"><path d="M5,485.9739410984093C197.5,485.9739410984093,197.5,233.83608927261122,390,233.83608927261122" stroke="#2ca02c" stroke-width="187.44025328275484"/><title>La Rochelle → autres produits: 5367801.07519</title></g><g style="mix-blend-mode: multiply;"><path d="M5,0.06511590265975813C197.5,0.06511590265975813,197.5,13.888019129035943,390,13.888019129035943" stroke="#d62728" stroke-width="1"/><title>Les Sables d'Olonne → sel: 3729.5</title></g><g style="mix-blend-mode: multiply;"><path d="M5,65.66562748110005C197.5,65.66562748110005,197.5,119.3149351936309,390,119.3149351936309" stroke="#1f77b4" stroke-width="31.022653724083014"/><title>Aligre → autres produits: 888408.0719</title></g><g style="mix-blend-mode: multiply;"><path d="M5,9.125354941635663C197.5,9.125354941635663,197.5,101.78753613789002,390,101.78753613789002" stroke="#8c564b" stroke-width="1"/><title>Rochefort → autres produits: 15224.86</title></g><g style="mix-blend-mode: multiply;"><path d="M5,13.912333476283429C197.5,13.912333476283429,197.5,337.077373158445,390,337.077373158445" stroke="#8c564b" stroke-width="9.042314488912934"/><title>Rochefort → eau-de-vie et vins divers: 258948.356</title></g><g style="mix-blend-mode: multiply;"><path d="M5,125.1487567942787C197.5,125.1487567942787,197.5,137.6767350772308,390,137.6767350772308" stroke="#ff7f0e" stroke-width="4.878455108005962"/><title>Charente → autres produits: 139706.25901</title></g><g style="mix-blend-mode: multiply;"><path d="M5,227.73038738786482C197.5,227.73038738786482,197.5,474.55166470020345,390,474.55166470020345" stroke="#ff7f0e" stroke-width="200.2848060791663"/><title>Charente → eau-de-vie et vins divers: 5735635.641689999</title></g><g style="mix-blend-mode: multiply;"><path d="M5,98.87308937314333C197.5,98.87308937314333,197.5,135.03188478945012,390,135.03188478945012" stroke="#9467bd" stroke-width="1"/><title>Marennes → autres produits: 11777</title></g><g style="mix-blend-mode: multiply;"><path d="M5,108.39412067359837C197.5,108.39412067359837,197.5,365.0938530939429,390,365.0938530939429" stroke="#9467bd" stroke-width="18.630817133354675"/><title>Marennes → eau-de-vie et vins divers: 533538.11942</title></g><g style="mix-blend-mode: multiply;"><path d="M5,92.42221049125358C197.5,92.42221049125358,197.5,25.989036050254196,390,25.989036050254196" stroke="#9467bd" stroke-width="12.490512296224074"/><title>Marennes → sel: 357695.7679000001</title></g><g style="mix-blend-mode: multiply;"><path d="M5,579.8470338698934C197.5,579.8470338698934,197.5,574.8470338698932,390,574.8470338698932" stroke="#2ca02c" stroke-width="1"/><title>La Rochelle → eau-de-vie et vins divers: 8761.1038</title></g><g style="mix-blend-mode: multiply;"><path d="M5,30.099261042940405C197.5,30.099261042940405,197.5,102.92848287983534,390,102.92848287983534" stroke="#e377c2" stroke-width="1.7502509035080724"/><title>Saint-Martin-de-Ré → autres produits: 50122.63116999999</title></g><g style="mix-blend-mode: multiply;"><path d="M5,38.06434355687648C197.5,38.06434355687648,197.5,348.6884874650836,390,348.6884874650836" stroke="#e377c2" stroke-width="14.17991412436408"/><title>Saint-Martin-de-Ré → eau-de-vie et vins divers: 406075.8398999999</title></g><g style="mix-blend-mode: multiply;"><path d="M5,26.32881315596314C197.5,26.32881315596314,197.5,16.84845746691893,390,16.84845746691893" stroke="#e377c2" stroke-width="5.790644870446457"/><title>Saint-Martin-de-Ré → sel: 165829</title></g><g style="mix-blend-mode: multiply;"><path d="M5,364.474754055428C197.5,364.474754055428,197.5,65.01335259997006,390,65.01335259997006" stroke="#2ca02c" stroke-width="55.55812080320771"/><title>La Rochelle → traite: 1591040</title></g><g style="mix-blend-mode: multiply;"><path d="M5,334.78424204063606C197.5,334.78424204063606,197.5,6.911451613188095,390,6.911451613188095" stroke="#2ca02c" stroke-width="3.82290322637619"/><title>La Rochelle → commerce colonial: 109478</title></g><g style="mix-blend-mode: multiply;"><path d="M395,122.38276124770819C587.5,122.38276124770819,587.5,154.63981142398367,780,154.63981142398367" stroke="#7f7f7f" stroke-width="47.22987068689821"/><title>autres produits → Ports francs et petites îles: 1352540.5894099998</title></g><g style="mix-blend-mode: multiply;"><path d="M395,237.66854314140335C587.5,237.66854314140335,587.5,481.6887285515263,780,481.6887285515263" stroke="#7f7f7f" stroke-width="179.77534554517058"/><title>autres produits → Reste du monde: 5148298.0641</title></g><g style="mix-blend-mode: multiply;"><path d="M395,22.2131610338039C587.5,22.2131610338039,587.5,127.0258971486877,780,127.0258971486877" stroke="#cccccc" stroke-width="7.99795786369372"/><title>sel → Ports francs et petites îles: 229040.7</title></g><g style="mix-blend-mode: multiply;"><path d="M395,572.0382006620558C587.5,572.0382006620558,587.5,574.5382006620558,780,574.5382006620558" stroke="#17becf" stroke-width="5.923598675888366"/><title>eau-de-vie et vins divers → Reste du monde: 169636.451</title></g><g style="mix-blend-mode: multiply;"><path d="M395,485.7793602801728C587.5,485.7793602801728,587.5,299.55731725053187,780,299.55731725053187" stroke="#17becf" stroke-width="166.59408208787767"/><title>eau-de-vie et vins divers → Angleterre: 4770820.9805000005</title></g><g style="mix-blend-mode: multiply;"><path d="M395,387.90886877960673C587.5,387.90886877960673,587.5,192.82819722405998,780,192.82819722405998" stroke="#17becf" stroke-width="29.146900913254402"/><title>eau-de-vie et vins divers → Ports francs et petites îles: 834691.3927</title></g><g style="mix-blend-mode: multiply;"><path d="M395,352.94581711848406C587.5,352.94581711848406,587.5,37.079196209137734,780,37.079196209137734" stroke="#17becf" stroke-width="40.77920240899095"/><title>eau-de-vie et vins divers → Europe du Nord: 1167810.23661</title></g><g style="mix-blend-mode: multiply;"><path d="M395,146.88928347998768C587.5,146.88928347998768,587.5,215.36868931776266,780,215.36868931776266" stroke="#7f7f7f" stroke-width="1.7831737776607386"/><title>autres produits → Angleterre: 51065.45661</title></g><g style="mix-blend-mode: multiply;"><path d="M395,30.260943456131052C587.5,30.260943456131052,587.5,389.8277070367059,780,389.8277070367059" stroke="#cccccc" stroke-width="3.946697484470352"/><title>sel → Reste du monde: 113023.1454</title></g><g style="mix-blend-mode: multiply;"><path d="M395,27.249867339773317C587.5,27.249867339773317,587.5,213.43937505480974,780,213.43937505480974" stroke="#cccccc" stroke-width="2.0754547482451167"/><title>sel → Angleterre: 59435.623</title></g><g style="mix-blend-mode: multiply;"><path d="M395,16.01854266416661C587.5,16.01854266416661,587.5,13.518542664166612,780,13.518542664166612" stroke="#cccccc" stroke-width="4.391278875580856"/><title>sel → Europe du Nord: 125754.7995</title></g><g style="mix-blend-mode: multiply;"><path d="M395,98.28011945291648C587.5,98.28011945291648,587.5,16.20188855329965,780,16.20188855329965" stroke="#7f7f7f" stroke-width="1"/><title>autres produits → Europe du Nord: 27933.2872</title></g><g style="mix-blend-mode: multiply;"><path d="M395,65.01335259997006C587.5,65.01335259997006,587.5,90.24785781523704,780,90.24785781523704" stroke="#cccccc" stroke-width="55.55812080320771"/><title>traite → Afrique: 1591040</title></g><g style="mix-blend-mode: multiply;"><path d="M395,6.911451613188095C587.5,6.911451613188095,587.5,4.411451613188095,780,4.411451613188095" stroke="#bcbd22" stroke-width="3.82290322637619"/><title>commerce colonial → Colonies: 109478</title></g></g><g><text x="399" y="6.911451613188092" text-anchor="start"><tspan alignment-baseline="middle" x="399" style="font-family: Arial, sans-serif; font-size: 10px; fill: black; font-weight: bold;">commerce colonial</tspan></text><text x="776" y="4.411451613188092" text-anchor="end"><tspan alignment-baseline="middle" x="776" style="font-family: Arial, sans-serif; font-size: 10px; fill: black; font-weight: bold;">Colonies</tspan></text><text x="9" y="1.9297668257221832" text-anchor="start"><tspan alignment-baseline="middle" x="9" style="font-family: Arial, sans-serif; font-size: 10px; fill: black; font-weight: bold;">Les Sables d'Olonne</tspan></text><text x="9" y="13.646512186092139" text-anchor="start"><tspan alignment-baseline="middle" x="9" style="font-family: Arial, sans-serif; font-size: 10px; fill: black; font-weight: bold;">Rochefort</tspan></text><text x="399" y="23.028597712371194" text-anchor="start"><tspan alignment-baseline="middle" x="399" style="font-family: Arial, sans-serif; font-size: 10px; fill: black; font-weight: bold;">sel</tspan></text><text x="9" y="34.29389566989923" text-anchor="start"><tspan alignment-baseline="middle" x="9" style="font-family: Arial, sans-serif; font-size: 10px; fill: black; font-weight: bold;">Saint-Martin-de-Ré</tspan></text><text x="9" y="65.66562748110005" text-anchor="start"><tspan alignment-baseline="middle" x="9" style="font-family: Arial, sans-serif; font-size: 10px; fill: black; font-weight: bold;">Aligre</tspan></text><text x="9" y="101.94324179170863" text-anchor="start"><tspan alignment-baseline="middle" x="9" style="font-family: Arial, sans-serif; font-size: 10px; fill: black; font-weight: bold;">Marennes</tspan></text><text x="776" y="34.39585032000468" text-anchor="end"><tspan alignment-baseline="middle" x="776" style="font-family: Arial, sans-serif; font-size: 10px; fill: black; font-weight: bold;">Europe du Nord</tspan></text><text x="399" y="65.01335259997003" text-anchor="start"><tspan alignment-baseline="middle" x="399" style="font-family: Arial, sans-serif; font-size: 10px; fill: black; font-weight: bold;">traite</tspan></text><text x="776" y="90.24785781523701" text-anchor="end"><tspan alignment-baseline="middle" x="776" style="font-family: Arial, sans-serif; font-size: 10px; fill: black; font-weight: bold;">Afrique</tspan></text><text x="776" y="165.214282948764" text-anchor="end"><tspan alignment-baseline="middle" x="776" style="font-family: Arial, sans-serif; font-size: 10px; fill: black; font-weight: bold;">Ports francs et petites îles</tspan></text><text x="776" y="297.62800298757895" text-anchor="end"><tspan alignment-baseline="middle" x="776" style="font-family: Arial, sans-serif; font-size: 10px; fill: black; font-weight: bold;">Angleterre</tspan></text><text x="776" y="482.67717914723534" text-anchor="end"><tspan alignment-baseline="middle" x="776" style="font-family: Arial, sans-serif; font-size: 10px; fill: black; font-weight: bold;">Reste du monde</tspan></text><text x="9" y="225.29115983386185" text-anchor="start"><tspan alignment-baseline="middle" x="9" style="font-family: Arial, sans-serif; font-size: 10px; fill: black; font-weight: bold;">Charente</tspan></text><text x="399" y="212.67431445778124" text-anchor="start"><tspan alignment-baseline="middle" x="399" style="font-family: Arial, sans-serif; font-size: 10px; fill: black; font-weight: bold;">autres produits</tspan></text><text x="399" y="453.7781079569943" text-anchor="start"><tspan alignment-baseline="middle" x="399" style="font-family: Arial, sans-serif; font-size: 10px; fill: black; font-weight: bold;">eau-de-vie et vins divers</tspan></text><text x="9" y="456.436395213724" text-anchor="start"><tspan alignment-baseline="middle" x="9" style="font-family: Arial, sans-serif; font-size: 10px; fill: black; font-weight: bold;">La Rochelle</tspan></text></g><g><text x="392.5" y="1" text-anchor="middle" style="font-family: Arial, sans-serif; font-size: 12px; fill: rgb(123, 123, 123); font-weight: bold;">product_viz</text><text x="782.5" y="-1.5" text-anchor="middle" style="font-family: Arial, sans-serif; font-size: 12px; fill: rgb(123, 123, 123); font-weight: bold;">partner_viz</text><text x="2.5" y="-4" text-anchor="middle" style="font-family: Arial, sans-serif; font-size: 12px; fill: rgb(123, 123, 123); font-weight: bold;">customs_office</text></g></g></svg>