<svg xmlns="http://www.w3.org/2000/svg" width="805" height="600"><rect width="805" height="600" x="0" y="0" fill="#FFFFFF" id="backgorund"/><g transform="translate(10,10)" id="visualization"><g><rect x="780" y="0" height="1.8692049637766104" width="5" fill="black"><title>Reste du monde (USA): 53529.1659</title></rect><rect x="780" y="6.86920496377661" height="3.8229032263761837" width="5" fill="black"><title>Colonies (Saint-Domingue, Indes, îles fr de l'Amérique): 109478</title></rect><rect x="0" y="0" height="3.8595336514443663" width="5" fill="black"><title>Les Sables d'Olonne: 110527.00005</title></rect><rect x="0" y="8.859533651444366" height="9.573957069295545" width="5" fill="black"><title>Rochefort: 274173.216</title></rect><rect x="390" y="7.5" height="18.41138897199005" width="5" fill="black"><title>sel: 527254.2679000001</title></rect><rect x="0" y="23.43349072073991" height="21.720809898318635" width="5" fill="black"><title>Saint-Martin-de-Ré: 622027.47107</title></rect><rect x="0" y="50.154300619058546" height="31.022653724083" width="5" fill="black"><title>Aligre: 888408.0719</title></rect><rect x="0" y="86.17695434314155" height="31.532574897134168" width="5" fill="black"><title>Marennes: 903010.8873200001</title></rect><rect x="780" y="15.692108190152794" height="54.57300398492691" width="5" fill="black"><title>Europe: 1562828.81791</title></rect><rect x="780" y="75.26511217507971" height="55.55812080320766" width="5" fill="black"><title>Afrique: 1591040</title></rect><rect x="780" y="135.82323297828736" height="84.37472946384634" width="5" fill="black"><title>Ports francs et petites îles: 2416272.68211</title></rect><rect x="390" y="30.91138897199005" height="104.76162430528967" width="5" fill="black"><title>autres produits: 3000100.29722</title></rect><rect x="780" y="225.1979624421337" height="170.4527106137835" width="5" fill="black"><title>Grande Bretagne: 4881322.06011</title></rect><rect x="390" y="140.67301327727972" height="177.88407858724986" width="5" fill="black"><title>produit colonial ('Café', 'Sucre', 'Indigo', 'Coton non transformé'): 5094137.1001</title></rect><rect x="780" y="400.6506730559172" height="179.3493269440828" width="5" fill="black"><title>Indéterminé (supposé réexportations vers Europe): 5136098</title></rect><rect x="0" y="122.70952924027571" height="205.16326118717225" width="5" fill="black"><title>Charente: 5875341.900699999</title></rect><rect x="0" y="332.87279042744797" height="247.12720957255203" width="5" fill="black"><title>La Rochelle: 7077080.17899</title></rect><rect x="390" y="323.5570918645296" height="248.94290813547042" width="5" fill="black"><title>eau-de-vie et vins divers: 7129077.060810001</title></rect></g><g fill="none" stroke-opacity="1"><g style="mix-blend-mode: multiply;"><path d="M5,1.9948827283819413C197.5,1.9948827283819413,197.5,32.77603989505248,390,32.77603989505248" stroke="#d62728" stroke-width="3.72930184612485"/><title>Les Sables d'Olonne → autres produits: 106797.50005</title></g><g style="mix-blend-mode: multiply;"><path d="M5,484.25290439670266C197.5,484.25290439670266,197.5,229.61505257090465,390,229.61505257090465" stroke="#2ca02c" stroke-width="177.88407858724986"/><title>La Rochelle → produit colonial ('Café', 'Sucre', 'Indigo', 'Coton non transformé'): 5094137.1001</title></g><g style="mix-blend-mode: multiply;"><path d="M5,0.06511590265975813C197.5,0.06511590265975813,197.5,7.565115902659758,390,7.565115902659758" stroke="#d62728" stroke-width="1"/><title>Les Sables d'Olonne → sel: 3729.5</title></g><g style="mix-blend-mode: multiply;"><path d="M5,65.66562748110005C197.5,65.66562748110005,197.5,52.433911164047075,390,52.433911164047075" stroke="#1f77b4" stroke-width="31.022653724083014"/><title>Aligre → autres produits: 888408.0719</title></g><g style="mix-blend-mode: multiply;"><path d="M5,364.09182776526285C197.5,364.09182776526285,197.5,104.45397593946485,390,104.45397593946485" stroke="#2ca02c" stroke-width="62.43807467562977"/><title>La Rochelle → autres produits: 1788063.9750899998</title></g><g style="mix-blend-mode: multiply;"><path d="M5,9.125354941635663C197.5,9.125354941635663,197.5,34.906512108306195,390,34.906512108306195" stroke="#8c564b" stroke-width="1"/><title>Rochefort → autres produits: 15224.86</title></g><g style="mix-blend-mode: multiply;"><path d="M5,13.912333476283429C197.5,13.912333476283429,197.5,328.07824910898603,390,328.07824910898603" stroke="#8c564b" stroke-width="9.042314488912934"/><title>Rochefort → eau-de-vie et vins divers: 258948.356</title></g><g style="mix-blend-mode: multiply;"><path d="M5,125.1487567942787C197.5,125.1487567942787,197.5,70.79571104764699,390,70.79571104764699" stroke="#ff7f0e" stroke-width="4.878455108005962"/><title>Charente → autres produits: 139706.25901</title></g><g style="mix-blend-mode: multiply;"><path d="M5,227.73038738786482C197.5,227.73038738786482,197.5,465.55254065074445,390,465.55254065074445" stroke="#ff7f0e" stroke-width="200.2848060791663"/><title>Charente → eau-de-vie et vins divers: 5735635.641689999</title></g><g style="mix-blend-mode: multiply;"><path d="M5,98.87308937314333C197.5,98.87308937314333,197.5,68.1508607598663,390,68.1508607598663" stroke="#9467bd" stroke-width="1"/><title>Marennes → autres produits: 11777</title></g><g style="mix-blend-mode: multiply;"><path d="M5,108.39412067359837C197.5,108.39412067359837,197.5,356.0947290444839,390,356.0947290444839" stroke="#9467bd" stroke-width="18.630817133354675"/><title>Marennes → eau-de-vie et vins divers: 533538.11942</title></g><g style="mix-blend-mode: multiply;"><path d="M5,92.42221049125358C197.5,92.42221049125358,197.5,19.66613282387801,390,19.66613282387801" stroke="#9467bd" stroke-width="12.490512296224074"/><title>Marennes → sel: 357695.7679000001</title></g><g style="mix-blend-mode: multiply;"><path d="M5,576.5974718451638C197.5,576.5974718451638,197.5,569.0974718451638,390,569.0974718451638" stroke="#2ca02c" stroke-width="6.805056309672449"/><title>La Rochelle → eau-de-vie et vins divers: 194879.10379999998</title></g><g style="mix-blend-mode: multiply;"><path d="M5,30.099261042940405C197.5,30.099261042940405,197.5,36.04745885025153,390,36.04745885025153" stroke="#e377c2" stroke-width="1.7502509035080724"/><title>Saint-Martin-de-Ré → autres produits: 50122.63116999999</title></g><g style="mix-blend-mode: multiply;"><path d="M5,38.06434355687648C197.5,38.06434355687648,197.5,339.6893634156246,390,339.6893634156246" stroke="#e377c2" stroke-width="14.17991412436408"/><title>Saint-Martin-de-Ré → eau-de-vie et vins divers: 406075.8398999999</title></g><g style="mix-blend-mode: multiply;"><path d="M5,26.32881315596314C197.5,26.32881315596314,197.5,10.525554240542744,390,10.525554240542744" stroke="#e377c2" stroke-width="5.790644870446457"/><title>Saint-Martin-de-Ré → sel: 165829</title></g><g style="mix-blend-mode: multiply;"><path d="M395,108.64736626097407C587.5,108.64736626097407,587.5,167.41169833560505,780,167.41169833560505" stroke="#7f7f7f" stroke-width="47.18101498724793"/><title>autres produits → Ports francs et petites îles: 1351141.4893099999</title></g><g style="mix-blend-mode: multiply;"><path d="M395,229.70841126499866C587.5,229.70841126499866,587.5,491.1513194004691,780,491.1513194004691" stroke="#17becf" stroke-width="177.69736119906185"/><title>produit colonial ('Café', 'Sucre', 'Indigo', 'Coton non transformé') → Indéterminé (supposé réexportations vers Europe): 5088790</title></g><g style="mix-blend-mode: multiply;"><path d="M395,19.836955291898065C587.5,19.836955291898065,587.5,139.82221191013423,780,139.82221191013423" stroke="#cccccc" stroke-width="7.99795786369372"/><title>sel → Ports francs et petites îles: 229040.7</title></g><g style="mix-blend-mode: multiply;"><path d="M395,134.84703040476927C587.5,134.84703040476927,587.5,401.4766559284277,780,401.4766559284277" stroke="#7f7f7f" stroke-width="1.6519657450209613"/><title>autres produits → Indéterminé (supposé réexportations vers Europe): 47308</title></g><g style="mix-blend-mode: multiply;"><path d="M395,347.80938852836135C587.5,347.80938852836135,587.5,47.386531148210445,780,47.386531148210445" stroke="#bcbd22" stroke-width="45.75716205373849"/><title>eau-de-vie et vins divers → Europe: 1310366.04661</title></g><g style="mix-blend-mode: multiply;"><path d="M395,489.20295895606125C587.5,489.20295895606125,587.5,312.3536320119784,780,312.3536320119784" stroke="#bcbd22" stroke-width="166.59408208787767"/><title>eau-de-vie et vins divers → Grande Bretagne: 4770820.9805000005</title></g><g style="mix-blend-mode: multiply;"><path d="M395,35.00693134443105C587.5,35.00693134443105,587.5,23.807234369454708,780,23.807234369454708" stroke="#7f7f7f" stroke-width="1.4014315037729868"/><title>autres produits → Europe: 40133.351299999995</title></g><g style="mix-blend-mode: multiply;"><path d="M395,391.33246745549525C587.5,391.33246745549525,587.5,205.6245119855065,780,205.6245119855065" stroke="#bcbd22" stroke-width="29.146900913254402"/><title>eau-de-vie et vins divers → Ports francs et petites îles: 834691.3927</title></g><g style="mix-blend-mode: multiply;"><path d="M395,133.12946064342842C587.5,133.12946064342842,587.5,228.16500407920918,780,228.16500407920918" stroke="#7f7f7f" stroke-width="1.7831737776607386"/><title>autres produits → Grande Bretagne: 51065.45661</title></g><g style="mix-blend-mode: multiply;"><path d="M395,12.130771146343498C587.5,12.130771146343498,587.5,19.399313403860504,780,19.399313403860504" stroke="#cccccc" stroke-width="7.414410427415417"/><title>sel → Europe: 212329.41999999998</title></g><g style="mix-blend-mode: multiply;"><path d="M395,24.873661597867482C587.5,24.873661597867482,587.5,226.23568981625627,780,226.23568981625627" stroke="#cccccc" stroke-width="2.0754547482451167"/><title>sel → Grande Bretagne: 59435.623</title></g><g style="mix-blend-mode: multiply;"><path d="M395,7.9617829663178945C587.5,7.9617829663178945,587.5,0.4617829663178949,780,0.4617829663178949" stroke="#cccccc" stroke-width="1"/><title>sel → Reste du monde (USA): 26448.5249</title></g><g style="mix-blend-mode: multiply;"><path d="M395,140.8353028156426C587.5,140.8353028156426,587.5,191.02663367905416,780,191.02663367905416" stroke="#17becf" stroke-width="1"/><title>produit colonial ('Café', 'Sucre', 'Indigo', 'Coton non transformé') → Ports francs et petites îles: 1399.1001</title></g><g style="mix-blend-mode: multiply;"><path d="M395,324.0299113801C587.5,324.0299113801,587.5,1.3963854482062028,780,1.3963854482062028" stroke="#bcbd22" stroke-width="1"/><title>eau-de-vie et vins divers → Reste du monde (USA): 27080.641</title></g><g style="mix-blend-mode: multiply;"><path d="M395,60.38225293183383C587.5,60.38225293183383,587.5,99.93971801059598,780,99.93971801059598" stroke="#7f7f7f" stroke-width="49.349211671032556"/><title>autres produits → Afrique: 1413233</title></g><g style="mix-blend-mode: multiply;"><path d="M395,32.608802282267305C587.5,32.608802282267305,587.5,8.566618274053866,780,8.566618274053866" stroke="#7f7f7f" stroke-width="3.3948266205545115"/><title>autres produits → Colonies (Saint-Domingue, Indes, îles fr de l'Amérique): 97219</title></g><g style="mix-blend-mode: multiply;"><path d="M395,140.74194412154858C587.5,140.74194412154858,587.5,124.68325469038112,780,124.68325469038112" stroke="#17becf" stroke-width="1"/><title>produit colonial ('Café', 'Sucre', 'Indigo', 'Coton non transformé') → Afrique: 3948</title></g><g style="mix-blend-mode: multiply;"><path d="M395,373.72349327704933C587.5,373.72349327704933,587.5,127.78770925646869,780,127.78770925646869" stroke="#bcbd22" stroke-width="6.071047443637425"/><title>eau-de-vie et vins divers → Afrique: 173859</title></g><g style="mix-blend-mode: multiply;"><path d="M395,324.7167691985813C587.5,324.7167691985813,587.5,10.478069887241961,780,10.478069887241961" stroke="#bcbd22" stroke-width="1"/><title>eau-de-vie et vins divers → Colonies (Saint-Domingue, Indes, îles fr de l'Amérique): 12259</title></g></g><g><text x="776" y="0.9346024818883052" text-anchor="end"><tspan alignment-baseline="middle" x="776" style="font-family: Arial, sans-serif; font-size: 10px; fill: black; font-weight: bold;">Reste du monde (USA)</tspan></text><text x="776" y="8.780656576964702" text-anchor="end"><tspan alignment-baseline="middle" x="776" style="font-family: Arial, sans-serif; font-size: 10px; fill: black; font-weight: bold;">Colonies (Saint-Domingue, Indes, îles fr de l'Amérique)</tspan></text><text x="9" y="1.9297668257221832" text-anchor="start"><tspan alignment-baseline="middle" x="9" style="font-family: Arial, sans-serif; font-size: 10px; fill: black; font-weight: bold;">Les Sables d'Olonne</tspan></text><text x="9" y="13.646512186092139" text-anchor="start"><tspan alignment-baseline="middle" x="9" style="font-family: Arial, sans-serif; font-size: 10px; fill: black; font-weight: bold;">Rochefort</tspan></text><text x="399" y="16.705694485995025" text-anchor="start"><tspan alignment-baseline="middle" x="399" style="font-family: Arial, sans-serif; font-size: 10px; fill: black; font-weight: bold;">sel</tspan></text><text x="9" y="34.29389566989923" text-anchor="start"><tspan alignment-baseline="middle" x="9" style="font-family: Arial, sans-serif; font-size: 10px; fill: black; font-weight: bold;">Saint-Martin-de-Ré</tspan></text><text x="9" y="65.66562748110005" text-anchor="start"><tspan alignment-baseline="middle" x="9" style="font-family: Arial, sans-serif; font-size: 10px; fill: black; font-weight: bold;">Aligre</tspan></text><text x="9" y="101.94324179170863" text-anchor="start"><tspan alignment-baseline="middle" x="9" style="font-family: Arial, sans-serif; font-size: 10px; fill: black; font-weight: bold;">Marennes</tspan></text><text x="776" y="42.97861018261625" text-anchor="end"><tspan alignment-baseline="middle" x="776" style="font-family: Arial, sans-serif; font-size: 10px; fill: black; font-weight: bold;">Europe</tspan></text><text x="776" y="103.04417257668354" text-anchor="end"><tspan alignment-baseline="middle" x="776" style="font-family: Arial, sans-serif; font-size: 10px; fill: black; font-weight: bold;">Afrique</tspan></text><text x="776" y="178.01059771021053" text-anchor="end"><tspan alignment-baseline="middle" x="776" style="font-family: Arial, sans-serif; font-size: 10px; fill: black; font-weight: bold;">Ports francs et petites îles</tspan></text><text x="399" y="83.29220112463489" text-anchor="start"><tspan alignment-baseline="middle" x="399" style="font-family: Arial, sans-serif; font-size: 10px; fill: black; font-weight: bold;">autres produits</tspan></text><text x="776" y="310.4243177490255" text-anchor="end"><tspan alignment-baseline="middle" x="776" style="font-family: Arial, sans-serif; font-size: 10px; fill: black; font-weight: bold;">Grande Bretagne</tspan></text><text x="399" y="229.61505257090465" text-anchor="start"><tspan alignment-baseline="middle" x="399" style="font-family: Arial, sans-serif; font-size: 10px; fill: black; font-weight: bold;">produit colonial ('Café', 'Sucre', 'Indigo', 'Coton non transformé')</tspan></text><text x="776" y="490.3253365279586" text-anchor="end"><tspan alignment-baseline="middle" x="776" style="font-family: Arial, sans-serif; font-size: 10px; fill: black; font-weight: bold;">Indéterminé (supposé réexportations vers Europe)</tspan></text><text x="9" y="225.29115983386185" text-anchor="start"><tspan alignment-baseline="middle" x="9" style="font-family: Arial, sans-serif; font-size: 10px; fill: black; font-weight: bold;">Charente</tspan></text><text x="9" y="456.436395213724" text-anchor="start"><tspan alignment-baseline="middle" x="9" style="font-family: Arial, sans-serif; font-size: 10px; fill: black; font-weight: bold;">La Rochelle</tspan></text><text x="399" y="448.0285459322648" text-anchor="start"><tspan alignment-baseline="middle" x="399" style="font-family: Arial, sans-serif; font-size: 10px; fill: black; font-weight: bold;">eau-de-vie et vins divers</tspan></text></g><g><text x="782.5" y="-4" text-anchor="middle" style="font-family: Arial, sans-serif; font-size: 12px; fill: rgb(123, 123, 123); font-weight: bold;">partner_viz</text><text x="2.5" y="-4" text-anchor="middle" style="font-family: Arial, sans-serif; font-size: 12px; fill: rgb(123, 123, 123); font-weight: bold;">customs_office</text><text x="392.5" y="3.5" text-anchor="middle" style="font-family: Arial, sans-serif; font-size: 12px; fill: rgb(123, 123, 123); font-weight: bold;">product_viz</text></g></g></svg>