<svg xmlns="http://www.w3.org/2000/svg" width="805" height="600"><rect width="805" height="600" x="0" y="0" fill="#FFFFFF" id="backgorund"/><g transform="translate(10,10)" id="visualization"><g><rect x="780" y="1.1368683772161603e-13" height="1.2088218464006104" width="5" fill="black"><title>Marennes: 28656</title></rect><rect x="780" y="6.208821846400724" height="1.814160815407039" width="5" fill="black"><title>Les Sables d'Olonne: 43006</title></rect><rect x="0" y="2.5" height="2.006097561677393" width="5" fill="black"><title>Afrique: 47556</title></rect><rect x="390" y="4.999999999999886" height="2.006097561677393" width="5" fill="black"><title>traite: 47556</title></rect><rect x="390" y="12.00609756167728" height="8.198694122663255" width="5" fill="black"><title>sel: 194356</title></rect><rect x="390" y="25.204791684340535" height="9.7869549634554" width="5" fill="black"><title>eau-de-vie et vins divers: 232006.877</title></rect><rect x="780" y="13.022982661807763" height="12.108873897676517" width="5" fill="black"><title>Aligre: 287049.65206</title></rect><rect x="780" y="30.13185655948428" height="14.306415639406847" width="5" fill="black"><title>Charente: 339143.97542000003</title></rect><rect x="780" y="49.43827219889113" height="15.517076946037378" width="5" fill="black"><title>Saint-Martin-de-Ré: 367843.58116099995</title></rect><rect x="0" y="9.506097561677393" height="34.008684497577576" width="5" fill="black"><title>Angleterre: 806200.57113</title></rect><rect x="0" y="48.51478205925497" height="40.26270807388653" width="5" fill="black"><title>Reste du monde: 954456.7431510002</title></rect><rect x="0" y="93.7774901331415" height="55.900759570811715" width="5" fill="black"><title>Europe du Nord: 1325168.1139210002</title></rect><rect x="780" y="69.9553491449285" height="84.00662748388714" width="5" fill="black"><title>Rochefort: 1991438.1299</title></rect><rect x="0" y="154.6782497039532" height="102.88632655694397" width="5" fill="black"><title>Ports francs et petites îles: 2438995.11131</title></rect><rect x="390" y="39.991746647795935" height="215.07282961310136" width="5" fill="black"><title>autres produits: 5098457.662512001</title></rect><rect x="0" y="262.5645762608972" height="314.9354237391028" width="5" fill="black"><title>Colonies: 7465773</title></rect><rect x="390" y="260.0645762608973" height="314.9354237391028" width="5" fill="black"><title>commerce colonial: 7465773</title></rect><rect x="780" y="158.96197662881565" height="421.03802337118424" width="5" fill="black"><title>La Rochelle: 9981012.200970998</title></rect></g><g fill="none" stroke-opacity="1"><g style="mix-blend-mode: multiply;"><path d="M5,215.1086692506476C197.5,215.1086692506476,197.5,212.60866925064767,390,212.60866925064767" stroke="#9467bd" stroke-width="84.91181402049918"/><title>Ports francs et petites îles → autres produits: 2012896.23431</title></g><g style="mix-blend-mode: multiply;"><path d="M5,420.0322881304486C197.5,420.0322881304486,197.5,417.5322881304487,390,417.5322881304487" stroke="#2ca02c" stroke-width="314.9354237391028"/><title>Colonies → commerce colonial: 7465773</title></g><g style="mix-blend-mode: multiply;"><path d="M5,158.77759676528478C197.5,158.77759676528478,197.5,16.105444623008843,390,16.105444623008843" stroke="#9467bd" stroke-width="8.198694122663127"/><title>Ports francs et petites îles → sel: 194356</title></g><g style="mix-blend-mode: multiply;"><path d="M5,167.76485303350717C197.5,167.76485303350717,197.5,30.10383744090506,390,30.10383744090506" stroke="#9467bd" stroke-width="9.77581841378164"/><title>Ports francs et petites îles → eau-de-vie et vins divers: 231742.877</title></g><g style="mix-blend-mode: multiply;"><path d="M5,26.510439810466185C197.5,26.510439810466185,197.5,56.99608889658472,390,56.99608889658472" stroke="#ff7f0e" stroke-width="34.00868449757758"/><title>Angleterre → autres produits: 806200.57113</title></g><g style="mix-blend-mode: multiply;"><path d="M5,68.6517043710351C197.5,68.6517043710351,197.5,94.12621690747994,390,94.12621690747994" stroke="#8c564b" stroke-width="40.25157152421285"/><title>Reste du monde → autres produits: 954192.7431510002</title></g><g style="mix-blend-mode: multiply;"><path d="M5,121.72786991854737C197.5,121.72786991854737,197.5,142.20238245499223,390,142.20238245499223" stroke="#d62728" stroke-width="55.900759570811736"/><title>Europe du Nord → autres produits: 1325168.1139210002</title></g><g style="mix-blend-mode: multiply;"><path d="M5,48.52035033409182C197.5,48.52035033409182,197.5,25.21035995917739,390,25.21035995917739" stroke="#8c564b" stroke-width="1"/><title>Reste du monde → eau-de-vie et vins divers: 264</title></g><g style="mix-blend-mode: multiply;"><path d="M5,3.5030487808386868C197.5,3.5030487808386868,197.5,6.003048780838573,390,6.003048780838573" stroke="#1f77b4" stroke-width="2.006097561677374"/><title>Afrique → traite: 47556</title></g><g style="mix-blend-mode: multiply;"><path d="M395,41.429331785410604C587.5,41.429331785410604,587.5,7.794219370593692,780,7.794219370593692" stroke="#e377c2" stroke-width="1"/><title>autres produits → Les Sables d'Olonne: 10846</title></g><g style="mix-blend-mode: multiply;"><path d="M395,425.30020026346074C587.5,425.30020026346074,587.5,430.3002002634605,780,430.3002002634605" stroke="#7f7f7f" stroke-width="299.3995994730788"/><title>commerce colonial → La Rochelle: 7097485</title></g><g style="mix-blend-mode: multiply;"><path d="M395,12.147202708111186C587.5,12.147202708111186,587.5,6.34992699283463,780,6.34992699283463" stroke="#17becf" stroke-width="1"/><title>sel → Les Sables d'Olonne: 6690</title></g><g style="mix-blend-mode: multiply;"><path d="M395,25.742003654396076C587.5,25.742003654396076,587.5,7.028244109324077,780,7.028244109324077" stroke="#bcbd22" stroke-width="1.0744239401110842"/><title>eau-de-vie et vins divers → Les Sables d'Olonne: 25470</title></g><g style="mix-blend-mode: multiply;"><path d="M395,46.04216030714507C587.5,46.04216030714507,587.5,20.747791328963892,780,20.747791328963892" stroke="#e377c2" stroke-width="8.768130461040782"/><title>autres produits → Aligre: 207854.90206</title></g><g style="mix-blend-mode: multiply;"><path d="M395,26.36123694555698C587.5,26.36123694555698,587.5,16.281704777338142,780,16.281704777338142" stroke="#bcbd22" stroke-width="1"/><title>eau-de-vie et vins divers → Aligre: 3888.75</title></g><g style="mix-blend-mode: multiply;"><path d="M395,267.8324883939093C587.5,267.8324883939093,587.5,146.19406449580373,780,146.19406449580373" stroke="#7f7f7f" stroke-width="15.535824266023987"/><title>commerce colonial → Rochefort: 368288</title></g><g style="mix-blend-mode: multiply;"><path d="M395,13.8766582517576C587.5,13.8766582517576,587.5,14.611333059020273,780,14.611333059020273" stroke="#17becf" stroke-width="3.1767007944250216"/><title>sel → Aligre: 75306</title></g><g style="mix-blend-mode: multiply;"><path d="M395,107.42919687495137C587.5,107.42919687495137,587.5,104.20602132576118,780,104.20602132576118" stroke="#e377c2" stroke-width="68.44026207406108"/><title>autres produits → Rochefort: 1622426.1299</title></g><g style="mix-blend-mode: multiply;"><path d="M395,29.358789127449107C587.5,29.358789127449107,587.5,69.97061971682957,780,69.97061971682957" stroke="#bcbd22" stroke-width="1"/><title>eau-de-vie et vins divers → Rochefort: 724</title></g><g style="mix-blend-mode: multiply;"><path d="M395,66.75031408874992C587.5,66.75031408874992,587.5,58.49659739575763,780,58.49659739575763" stroke="#e377c2" stroke-width="12.917503498341814"/><title>autres produits → Saint-Martin-de-Ré: 306218.80416099995</title></g><g style="mix-blend-mode: multiply;"><path d="M395,28.043731831700235C587.5,28.043731831700235,587.5,50.73805892273893,780,50.73805892273893" stroke="#bcbd22" stroke-width="2.5995734476955996"/><title>eau-de-vie et vins divers → Saint-Martin-de-Ré: 61624.777</title></g><g style="mix-blend-mode: multiply;"><path d="M395,55.35889393862224C587.5,55.35889393862224,587.5,39.50560379793438,780,39.50560379793438" stroke="#e377c2" stroke-width="9.865336801913555"/><title>autres produits → Charente: 233864.97542</title></g><g style="mix-blend-mode: multiply;"><path d="M395,26.593601687257387C587.5,26.593601687257387,587.5,34.42259197638255,780,34.42259197638255" stroke="#bcbd22" stroke-width="1"/><title>eau-de-vie et vins divers → Charente: 7128</title></g><g style="mix-blend-mode: multiply;"><path d="M395,6.003048780838573C587.5,6.003048780838573,587.5,159.96502540965434,780,159.96502540965434" stroke="#cccccc" stroke-width="2.006097561677374"/><title>traite → La Rochelle: 47556</title></g><g style="mix-blend-mode: multiply;"><path d="M395,17.535204647121724C587.5,17.535204647121724,587.5,32.20205255763589,780,32.20205255763589" stroke="#17becf" stroke-width="4.1403919963032205"/><title>sel → Charente: 98151</title></g><g style="mix-blend-mode: multiply;"><path d="M395,40.59615757099623C587.5,40.59615757099623,587.5,0.6044109232004126,780,0.6044109232004126" stroke="#e377c2" stroke-width="1.2088218464005978"/><title>autres produits → Marennes: 28656</title></g><g style="mix-blend-mode: multiply;"><path d="M395,198.35695208643958C587.5,198.35695208643958,587.5,223.89277635246347,780,223.89277635246347" stroke="#e377c2" stroke-width="113.41524834891534"/><title>autres produits → La Rochelle: 2688590.8509709993</title></g><g style="mix-blend-mode: multiply;"><path d="M395,32.18290317357303C587.5,32.18290317357303,587.5,164.37630870378297,780,164.37630870378297" stroke="#bcbd22" stroke-width="5.6176869484457095"/><title>eau-de-vie et vins divers → La Rochelle: 133171.35</title></g><g style="mix-blend-mode: multiply;"><path d="M395,19.90509616480687C587.5,19.90509616480687,587.5,161.26776971002656,780,161.26776971002656" stroke="#17becf" stroke-width="1"/><title>sel → La Rochelle: 14209</title></g></g><g><text x="776" y="0.6044109232004189" text-anchor="end"><tspan alignment-baseline="middle" x="776" style="font-family: Arial, sans-serif; font-size: 10px; fill: black; font-weight: bold;">Marennes</tspan></text><text x="776" y="7.115902254104244" text-anchor="end"><tspan alignment-baseline="middle" x="776" style="font-family: Arial, sans-serif; font-size: 10px; fill: black; font-weight: bold;">Les Sables d'Olonne</tspan></text><text x="9" y="3.5030487808386965" text-anchor="start"><tspan alignment-baseline="middle" x="9" style="font-family: Arial, sans-serif; font-size: 10px; fill: black; font-weight: bold;">Afrique</tspan></text><text x="399" y="6.003048780838583" text-anchor="start"><tspan alignment-baseline="middle" x="399" style="font-family: Arial, sans-serif; font-size: 10px; fill: black; font-weight: bold;">traite</tspan></text><text x="399" y="16.105444623008907" text-anchor="start"><tspan alignment-baseline="middle" x="399" style="font-family: Arial, sans-serif; font-size: 10px; fill: black; font-weight: bold;">sel</tspan></text><text x="399" y="30.098269166068235" text-anchor="start"><tspan alignment-baseline="middle" x="399" style="font-family: Arial, sans-serif; font-size: 10px; fill: black; font-weight: bold;">eau-de-vie et vins divers</tspan></text><text x="776" y="19.07741961064602" text-anchor="end"><tspan alignment-baseline="middle" x="776" style="font-family: Arial, sans-serif; font-size: 10px; fill: black; font-weight: bold;">Aligre</tspan></text><text x="776" y="37.2850643791877" text-anchor="end"><tspan alignment-baseline="middle" x="776" style="font-family: Arial, sans-serif; font-size: 10px; fill: black; font-weight: bold;">Charente</tspan></text><text x="776" y="57.196810671909816" text-anchor="end"><tspan alignment-baseline="middle" x="776" style="font-family: Arial, sans-serif; font-size: 10px; fill: black; font-weight: bold;">Saint-Martin-de-Ré</tspan></text><text x="9" y="26.51043981046618" text-anchor="start"><tspan alignment-baseline="middle" x="9" style="font-family: Arial, sans-serif; font-size: 10px; fill: black; font-weight: bold;">Angleterre</tspan></text><text x="9" y="68.64613609619823" text-anchor="start"><tspan alignment-baseline="middle" x="9" style="font-family: Arial, sans-serif; font-size: 10px; fill: black; font-weight: bold;">Reste du monde</tspan></text><text x="9" y="121.72786991854736" text-anchor="start"><tspan alignment-baseline="middle" x="9" style="font-family: Arial, sans-serif; font-size: 10px; fill: black; font-weight: bold;">Europe du Nord</tspan></text><text x="776" y="111.95866288687208" text-anchor="end"><tspan alignment-baseline="middle" x="776" style="font-family: Arial, sans-serif; font-size: 10px; fill: black; font-weight: bold;">Rochefort</tspan></text><text x="9" y="206.1214129824252" text-anchor="start"><tspan alignment-baseline="middle" x="9" style="font-family: Arial, sans-serif; font-size: 10px; fill: black; font-weight: bold;">Ports francs et petites îles</tspan></text><text x="399" y="147.52816145434662" text-anchor="start"><tspan alignment-baseline="middle" x="399" style="font-family: Arial, sans-serif; font-size: 10px; fill: black; font-weight: bold;">autres produits</tspan></text><text x="9" y="420.0322881304486" text-anchor="start"><tspan alignment-baseline="middle" x="9" style="font-family: Arial, sans-serif; font-size: 10px; fill: black; font-weight: bold;">Colonies</tspan></text><text x="399" y="417.5322881304487" text-anchor="start"><tspan alignment-baseline="middle" x="399" style="font-family: Arial, sans-serif; font-size: 10px; fill: black; font-weight: bold;">commerce colonial</tspan></text><text x="776" y="369.4809883144078" text-anchor="end"><tspan alignment-baseline="middle" x="776" style="font-family: Arial, sans-serif; font-size: 10px; fill: black; font-weight: bold;">La Rochelle</tspan></text></g><g><text x="782.5" y="-3.9999999999998863" text-anchor="middle" style="font-family: Arial, sans-serif; font-size: 12px; fill: rgb(123, 123, 123); font-weight: bold;">customs_office</text><text x="2.5" y="-1.5" text-anchor="middle" style="font-family: Arial, sans-serif; font-size: 12px; fill: rgb(123, 123, 123); font-weight: bold;">partner_viz</text><text x="392.5" y="0.9999999999998863" text-anchor="middle" style="font-family: Arial, sans-serif; font-size: 12px; fill: rgb(123, 123, 123); font-weight: bold;">product_viz</text></g></g></svg>