<svg xmlns="http://www.w3.org/2000/svg" width="805" height="600"><rect width="805" height="600" x="0" y="0" fill="#FFFFFF" id="backgorund"/><g transform="translate(10,10)" id="visualization"><g><rect x="780" y="1.1368683772161603e-13" height="1.2088218464006104" width="5" fill="black"><title>Marennes: 28656</title></rect><rect x="780" y="6.208821846400724" height="1.814160815407039" width="5" fill="black"><title>Les Sables d'Olonne: 43006</title></rect><rect x="0" y="2.5000000000001137" height="2.006097561677393" width="5" fill="black"><title>Afrique: 47556</title></rect><rect x="0" y="9.506097561677507" height="2.0219544982290927" width="5" fill="black"><title>Reste du monde (USA): 47931.900200000004</title></rect><rect x="390" y="7.500000000000057" height="8.198694122663113" width="5" fill="black"><title>sel: 194356</title></rect><rect x="390" y="20.69869412266317" height="10.103249847748742" width="5" fill="black"><title>eau-de-vie et vins divers: 239504.877</title></rect><rect x="780" y="13.022982661807763" height="12.108873897676517" width="5" fill="black"><title>Aligre: 287049.65206</title></rect><rect x="780" y="30.13185655948428" height="14.306415639406847" width="5" fill="black"><title>Charente: 339143.97542000003</title></rect><rect x="780" y="49.43827219889113" height="15.517076946037378" width="5" fill="black"><title>Saint-Martin-de-Ré: 367843.58116099995</title></rect><rect x="0" y="16.5280520599066" height="34.008684497577576" width="5" fill="black"><title>Grande Bretagne: 806200.57113</title></rect><rect x="780" y="69.9553491449285" height="84.00662748388714" width="5" fill="black"><title>Rochefort: 1991438.1299</title></rect><rect x="0" y="55.536736557484176" height="94.14151314646904" width="5" fill="black"><title>Europe: 2231692.956871999</title></rect><rect x="0" y="154.6782497039532" height="102.88632655694391" width="5" fill="black"><title>Ports francs et petites îles: 2438995.1113099996</title></rect><rect x="390" y="35.80194397041191" height="218.5307999994179" width="5" fill="black"><title>autres produits: 5180431.362511999</title></rect><rect x="390" y="259.33274396982983" height="313.16725603017017" width="5" fill="black"><title>produit colonial ('Café', 'Sucre', 'Indigo', 'Coton non transformé'): 7423857.3</title></rect><rect x="0" y="262.5645762608971" height="314.9354237391029" width="5" fill="black"><title>Colonies (Saint-Domingue, Indes, îles fr de l'Amérique): 7465773</title></rect><rect x="780" y="158.96197662881565" height="421.03802337118424" width="5" fill="black"><title>La Rochelle: 9981012.200970998</title></rect></g><g fill="none" stroke-opacity="1"><g style="mix-blend-mode: multiply;"><path d="M5,213.8881983201849C197.5,213.8881983201849,197.5,209.2044932044783,390,209.2044932044783" stroke="#9467bd" stroke-width="82.47087215957379"/><title>Ports francs et petites îles → autres produits: 1955031.93431</title></g><g style="mix-blend-mode: multiply;"><path d="M5,264.8272784879729C197.5,264.8272784879729,197.5,252.3863366270475,390,252.3863366270475" stroke="#ff7f0e" stroke-width="3.8928146855646277"/><title>Colonies (Saint-Domingue, Indes, îles fr de l'Amérique) → autres produits: 92282</title></g><g style="mix-blend-mode: multiply;"><path d="M5,158.77759676528478C197.5,158.77759676528478,197.5,11.59934706133162,390,11.59934706133162" stroke="#9467bd" stroke-width="8.198694122663127"/><title>Ports francs et petites îles → sel: 194356</title></g><g style="mix-blend-mode: multiply;"><path d="M5,167.76485303350717C197.5,167.76485303350717,197.5,25.597739879227696,390,25.597739879227696" stroke="#9467bd" stroke-width="9.77581841378164"/><title>Ports francs et petites îles → eau-de-vie et vins divers: 231742.877</title></g><g style="mix-blend-mode: multiply;"><path d="M5,33.53239430869539C197.5,33.53239430869539,197.5,56.83433827910717,390,56.83433827910717" stroke="#d62728" stroke-width="34.00868449757758"/><title>Grande Bretagne → autres produits: 806200.57113</title></g><g style="mix-blend-mode: multiply;"><path d="M5,256.3441053304345C197.5,256.3441053304345,197.5,260.5532149002925,390,260.5532149002925" stroke="#9467bd" stroke-width="2.440941860925395"/><title>Ports francs et petites îles → produit colonial ('Café', 'Sucre', 'Indigo', 'Coton non transformé'): 57864.3</title></g><g style="mix-blend-mode: multiply;"><path d="M5,422.1368429153776C197.5,422.1368429153776,197.5,417.13684291537766,390,417.13684291537766" stroke="#ff7f0e" stroke-width="310.7263141692448"/><title>Colonies (Saint-Domingue, Indes, îles fr de l'Amérique) → produit colonial ('Café', 'Sucre', 'Indigo', 'Coton non transformé'): 7365993</title></g><g style="mix-blend-mode: multiply;"><path d="M5,102.6130614055556C197.5,102.6130614055556,197.5,120.90386882629369,390,120.90386882629369" stroke="#2ca02c" stroke-width="94.13037659679543"/><title>Europe → autres produits: 2231428.956871999</title></g><g style="mix-blend-mode: multiply;"><path d="M5,55.54230483232103C197.5,55.54230483232103,197.5,20.704262397500024,390,20.704262397500024" stroke="#2ca02c" stroke-width="1"/><title>Europe → eau-de-vie et vins divers: 264</title></g><g style="mix-blend-mode: multiply;"><path d="M5,10.517074810792058C197.5,10.517074810792058,197.5,38.81901878120384,390,38.81901878120384" stroke="#8c564b" stroke-width="2.0219544982291033"/><title>Reste du monde (USA) → autres produits: 47931.900200000004</title></g><g style="mix-blend-mode: multiply;"><path d="M5,262.7227237030438C197.5,262.7227237030438,197.5,30.643796528265216,390,30.643796528265216" stroke="#ff7f0e" stroke-width="1"/><title>Colonies (Saint-Domingue, Indes, îles fr de l'Amérique) → eau-de-vie et vins divers: 7498</title></g><g style="mix-blend-mode: multiply;"><path d="M5,3.5030487808388004C197.5,3.5030487808388004,197.5,36.8049927512506,390,36.8049927512506" stroke="#1f77b4" stroke-width="2.006097561677374"/><title>Afrique → autres produits: 47556</title></g><g style="mix-blend-mode: multiply;"><path d="M395,37.23952910802658C587.5,37.23952910802658,587.5,7.794219370593692,780,7.794219370593692" stroke="#e377c2" stroke-width="1"/><title>autres produits → Les Sables d'Olonne: 10846</title></g><g style="mix-blend-mode: multiply;"><path d="M395,195.93338298616035C587.5,195.93338298616035,587.5,223.59225191928945,780,223.59225191928945" stroke="#e377c2" stroke-width="116.79872196733886"/><title>autres produits → La Rochelle: 2768798.5509709986</title></g><g style="mix-blend-mode: multiply;"><path d="M395,7.641105146433962C587.5,7.641105146433962,587.5,6.34992699283463,780,6.34992699283463" stroke="#17becf" stroke-width="1"/><title>sel → Les Sables d'Olonne: 6690</title></g><g style="mix-blend-mode: multiply;"><path d="M395,21.23590609271871C587.5,21.23590609271871,587.5,7.028244109324077,780,7.028244109324077" stroke="#7f7f7f" stroke-width="1.0744239401110842"/><title>eau-de-vie et vins divers → Les Sables d'Olonne: 25470</title></g><g style="mix-blend-mode: multiply;"><path d="M395,41.83527315014797C587.5,41.83527315014797,587.5,20.730706849350817,780,20.730706849350817" stroke="#e377c2" stroke-width="8.733961501814633"/><title>autres produits → Aligre: 207044.90206</title></g><g style="mix-blend-mode: multiply;"><path d="M395,259.3498284494429C587.5,259.3498284494429,587.5,25.11477207987121,780,25.11477207987121" stroke="#bcbd22" stroke-width="1"/><title>produit colonial ('Café', 'Sucre', 'Indigo', 'Coton non transformé') → Aligre: 810</title></g><g style="mix-blend-mode: multiply;"><path d="M395,423.49580645147944C587.5,423.49580645147944,587.5,430.99580645147944,780,430.99580645147944" stroke="#bcbd22" stroke-width="298.00838709704107"/><title>produit colonial ('Café', 'Sucre', 'Indigo', 'Coton non transformé') → La Rochelle: 7064505.3</title></g><g style="mix-blend-mode: multiply;"><path d="M395,21.855139383879614C587.5,21.855139383879614,587.5,16.281704777338142,780,16.281704777338142" stroke="#7f7f7f" stroke-width="1"/><title>eau-de-vie et vins divers → Aligre: 3888.75</title></g><g style="mix-blend-mode: multiply;"><path d="M395,266.9292629160074C587.5,266.9292629160074,587.5,146.39962664186424,780,146.39962664186424" stroke="#bcbd22" stroke-width="15.124699973902958"/><title>produit colonial ('Café', 'Sucre', 'Indigo', 'Coton non transformé') → Rochefort: 358542</title></g><g style="mix-blend-mode: multiply;"><path d="M395,9.370560690080378C587.5,9.370560690080378,587.5,14.611333059020273,780,14.611333059020273" stroke="#17becf" stroke-width="3.1767007944250216"/><title>sel → Aligre: 75306</title></g><g style="mix-blend-mode: multiply;"><path d="M395,103.25955810190081C587.5,103.25955810190081,587.5,104.56281275432261,780,104.56281275432261" stroke="#e377c2" stroke-width="68.54892780118028"/><title>autres produits → Rochefort: 1625002.1299</title></g><g style="mix-blend-mode: multiply;"><path d="M395,25.003920848272653C587.5,25.003920848272653,587.5,70.12184899933048,780,70.12184899933048" stroke="#7f7f7f" stroke-width="1"/><title>eau-de-vie et vins divers → Rochefort: 7894</title></g><g style="mix-blend-mode: multiply;"><path d="M395,62.52634245213975C587.5,62.52634245213975,587.5,58.49659739575763,780,58.49659739575763" stroke="#e377c2" stroke-width="12.917503498341814"/><title>autres produits → Saint-Martin-de-Ré: 306218.80416099995</title></g><g style="mix-blend-mode: multiply;"><path d="M395,23.53763427002287C587.5,23.53763427002287,587.5,50.73805892273893,780,50.73805892273893" stroke="#7f7f7f" stroke-width="2.5995734476955996"/><title>eau-de-vie et vins divers → Saint-Martin-de-Ré: 61624.777</title></g><g style="mix-blend-mode: multiply;"><path d="M395,27.986182336543276C587.5,27.986182336543276,587.5,162.37712930175138,780,162.37712930175138" stroke="#7f7f7f" stroke-width="5.631523267737285"/><title>eau-de-vie et vins divers → La Rochelle: 133499.35</title></g><g style="mix-blend-mode: multiply;"><path d="M395,51.134922302012065C587.5,51.134922302012065,587.5,39.50560379793438,780,39.50560379793438" stroke="#e377c2" stroke-width="9.865336801913555"/><title>autres produits → Charente: 233864.97542</title></g><g style="mix-blend-mode: multiply;"><path d="M395,22.087504125580022C587.5,22.087504125580022,587.5,34.42259197638255,780,34.42259197638255" stroke="#7f7f7f" stroke-width="1"/><title>eau-de-vie et vins divers → Charente: 7128</title></g><g style="mix-blend-mode: multiply;"><path d="M395,13.029107085444501C587.5,13.029107085444501,587.5,32.20205255763589,780,32.20205255763589" stroke="#17becf" stroke-width="4.1403919963032205"/><title>sel → Charente: 98151</title></g><g style="mix-blend-mode: multiply;"><path d="M395,36.40635489361221C587.5,36.40635489361221,587.5,0.6044109232004126,780,0.6044109232004126" stroke="#e377c2" stroke-width="1.2088218464005978"/><title>autres produits → Marennes: 28656</title></g><g style="mix-blend-mode: multiply;"><path d="M395,15.398998603129648C587.5,15.398998603129648,587.5,159.2616721483492,780,159.2616721483492" stroke="#17becf" stroke-width="1"/><title>sel → La Rochelle: 14209</title></g></g><g><text x="776" y="0.6044109232004189" text-anchor="end"><tspan alignment-baseline="middle" x="776" style="font-family: Arial, sans-serif; font-size: 10px; fill: black; font-weight: bold;">Marennes</tspan></text><text x="776" y="7.115902254104244" text-anchor="end"><tspan alignment-baseline="middle" x="776" style="font-family: Arial, sans-serif; font-size: 10px; fill: black; font-weight: bold;">Les Sables d'Olonne</tspan></text><text x="9" y="3.50304878083881" text-anchor="start"><tspan alignment-baseline="middle" x="9" style="font-family: Arial, sans-serif; font-size: 10px; fill: black; font-weight: bold;">Afrique</tspan></text><text x="9" y="10.517074810792053" text-anchor="start"><tspan alignment-baseline="middle" x="9" style="font-family: Arial, sans-serif; font-size: 10px; fill: black; font-weight: bold;">Reste du monde (USA)</tspan></text><text x="399" y="11.599347061331613" text-anchor="start"><tspan alignment-baseline="middle" x="399" style="font-family: Arial, sans-serif; font-size: 10px; fill: black; font-weight: bold;">sel</tspan></text><text x="399" y="25.75031904653754" text-anchor="start"><tspan alignment-baseline="middle" x="399" style="font-family: Arial, sans-serif; font-size: 10px; fill: black; font-weight: bold;">eau-de-vie et vins divers</tspan></text><text x="776" y="19.07741961064602" text-anchor="end"><tspan alignment-baseline="middle" x="776" style="font-family: Arial, sans-serif; font-size: 10px; fill: black; font-weight: bold;">Aligre</tspan></text><text x="776" y="37.2850643791877" text-anchor="end"><tspan alignment-baseline="middle" x="776" style="font-family: Arial, sans-serif; font-size: 10px; fill: black; font-weight: bold;">Charente</tspan></text><text x="776" y="57.196810671909816" text-anchor="end"><tspan alignment-baseline="middle" x="776" style="font-family: Arial, sans-serif; font-size: 10px; fill: black; font-weight: bold;">Saint-Martin-de-Ré</tspan></text><text x="9" y="33.53239430869539" text-anchor="start"><tspan alignment-baseline="middle" x="9" style="font-family: Arial, sans-serif; font-size: 10px; fill: black; font-weight: bold;">Grande Bretagne</tspan></text><text x="776" y="111.95866288687208" text-anchor="end"><tspan alignment-baseline="middle" x="776" style="font-family: Arial, sans-serif; font-size: 10px; fill: black; font-weight: bold;">Rochefort</tspan></text><text x="9" y="102.6074931307187" text-anchor="start"><tspan alignment-baseline="middle" x="9" style="font-family: Arial, sans-serif; font-size: 10px; fill: black; font-weight: bold;">Europe</tspan></text><text x="9" y="206.12141298242517" text-anchor="start"><tspan alignment-baseline="middle" x="9" style="font-family: Arial, sans-serif; font-size: 10px; fill: black; font-weight: bold;">Ports francs et petites îles</tspan></text><text x="399" y="145.06734397012087" text-anchor="start"><tspan alignment-baseline="middle" x="399" style="font-family: Arial, sans-serif; font-size: 10px; fill: black; font-weight: bold;">autres produits</tspan></text><text x="399" y="415.9163719849149" text-anchor="start"><tspan alignment-baseline="middle" x="399" style="font-family: Arial, sans-serif; font-size: 10px; fill: black; font-weight: bold;">produit colonial ('Café', 'Sucre', 'Indigo', 'Coton non transformé')</tspan></text><text x="9" y="420.0322881304486" text-anchor="start"><tspan alignment-baseline="middle" x="9" style="font-family: Arial, sans-serif; font-size: 10px; fill: black; font-weight: bold;">Colonies (Saint-Domingue, Indes, îles fr de l'Amérique)</tspan></text><text x="776" y="369.4809883144078" text-anchor="end"><tspan alignment-baseline="middle" x="776" style="font-family: Arial, sans-serif; font-size: 10px; fill: black; font-weight: bold;">La Rochelle</tspan></text></g><g><text x="782.5" y="-3.9999999999998863" text-anchor="middle" style="font-family: Arial, sans-serif; font-size: 12px; fill: rgb(123, 123, 123); font-weight: bold;">customs_office</text><text x="2.5" y="-1.4999999999998863" text-anchor="middle" style="font-family: Arial, sans-serif; font-size: 12px; fill: rgb(123, 123, 123); font-weight: bold;">partner_viz</text><text x="392.5" y="3.500000000000057" text-anchor="middle" style="font-family: Arial, sans-serif; font-size: 12px; fill: rgb(123, 123, 123); font-weight: bold;">product_viz</text></g></g></svg>